<?xml version="1.0" encoding="utf-8"?>
<!-- Generator: Adobe Illustrator 25.2.1, SVG Export Plug-In . SVG Version: 6.00 Build 0)  -->
<svg version="1.1" id="Layer_1" xmlns="http://www.w3.org/2000/svg" xmlns:xlink="http://www.w3.org/1999/xlink" x="0px" y="0px"
	 viewBox="0 0 55.7 20" style="enable-background:new 0 0 55.7 20;" xml:space="preserve">
<style type="text/css">
	.st0{fill:#353D46;}
	.st1{fill:#53595F;}
	.st2{fill:url(#SVGID_1_);}
	.st3{fill:url(#SVGID_2_);}
	.st4{fill:url(#SVGID_3_);}
	.st5{fill:url(#SVGID_4_);}
	.st6{fill:url(#SVGID_5_);}
	.st7{fill:url(#SVGID_6_);}
	.st8{fill:url(#SVGID_7_);}
	.st9{fill:url(#SVGID_8_);}
	.st10{fill:url(#SVGID_9_);}
	.st11{fill:url(#SVGID_10_);}
	.st12{fill:url(#SVGID_11_);}
	.st13{fill:url(#SVGID_12_);}
	.st14{fill:url(#SVGID_13_);}
	.st15{fill:url(#SVGID_14_);}
	.st16{fill:url(#SVGID_15_);}
	.st17{fill:url(#SVGID_16_);}
	.st18{fill:url(#SVGID_17_);}
	.st19{fill:url(#SVGID_18_);}
	.st20{fill:url(#SVGID_19_);}
	.st21{fill:url(#SVGID_20_);}
</style>
<g>
	<g>
		<path class="st0" d="M26.7,9.8c0.1-0.2,0.1-0.4,0.1-0.6v0c0-0.5-0.2-0.9-0.6-1.2c-0.3-0.2-0.7-0.4-1.1-0.4h-2.1v0
			c0.3-0.3,0.5-0.6,0.8-0.7c0.4-0.2,0.8-0.3,1.3-0.3c0.7,0,1.3,0.3,1.9,0.8c0.5,0.5,0.8,1.2,0.8,1.9c0,0.6-0.2,1.1-0.5,1.6l0.2,0.3
			c0.2,0.2,0.1,0.5-0.1,0.7c-0.2,0.2-0.5,0.1-0.8-0.1l-0.1-0.1c-0.4,0.3-0.9,0.4-1.4,0.4c-0.7,0-1.3-0.3-1.9-0.8
			c-0.5-0.5-0.8-1.2-0.8-1.9c0-0.3,0-0.5,0.1-0.8c0.1-0.2,0.3-0.3,0.4-0.3h0c0.3,0,0.4,0.1,0.5,0.4c0,0.1,0,0.1,0,0.1
			c0,0.2-0.1,0.4-0.1,0.5v0c0,0.5,0.2,1,0.7,1.3c0.3,0.2,0.6,0.3,0.9,0.3c0.3,0,0.5-0.1,0.7-0.2l-0.2-0.3c-0.2-0.2-0.1-0.5,0.1-0.7
			c0.3-0.2,0.5-0.1,0.7,0.1L26.7,9.8z"/>
		<path class="st0" d="M28.9,6.5c0.3,0,0.5,0.2,0.5,0.6v2.5c0,0.5,0.2,0.8,0.5,1c0,0.1,0.2,0.1,0.6,0.2h0c0.4,0,0.6-0.1,0.8-0.4
			c0.2-0.2,0.2-0.5,0.2-0.8V7c0-0.4,0.2-0.6,0.6-0.6c0.3,0,0.5,0.2,0.5,0.5v2.5c0,1-0.4,1.7-1.2,2.1c-0.4,0.2-0.6,0.2-0.9,0.2h0
			c-0.9,0-1.6-0.4-2-1.3c-0.1-0.2-0.2-0.6-0.2-1.2V7.1C28.4,6.7,28.5,6.5,28.9,6.5z"/>
		<path class="st0" d="M33.2,7.8V7c0-0.3,0.2-0.5,0.5-0.5c0.3,0,0.5,0.2,0.5,0.6v0.1c0,0,0,0,0,0.1l0,4.1c0,0.3-0.2,0.5-0.5,0.5
			c-0.3,0-0.5-0.2-0.5-0.6L33.2,7.8z"/>
		<path class="st0" d="M35.7,8.6l0,2.7c0,0.3-0.2,0.5-0.5,0.5c-0.3,0-0.5-0.2-0.5-0.6l0-3.4V7c0-0.3,0.2-0.5,0.5-0.5
			c0.1,0,0.2,0,0.3,0.1c0.1,0,0.1,0.1,0.2,0.2l0.1,0.1c0,0,0,0,0,0l2.1,2.9l0-1.9V7c0-0.3,0.2-0.5,0.5-0.5C38.8,6.5,39,6.7,39,7v0.1
			c0,0,0,0,0,0.1l0,4.1c0,0.2-0.1,0.3-0.2,0.4c0,0,0,0-0.1,0.1c-0.2,0.2-0.5,0.1-0.8-0.2L35.7,8.6z"/>
		<path class="st0" d="M39.9,7.6c-0.3,0-0.5-0.2-0.6-0.6c0-0.3,0.2-0.5,0.6-0.5c0,0,0,0,0.1,0l3.2,0c0.3,0,0.5,0.2,0.5,0.5
			c0,0.3-0.2,0.5-0.6,0.5h-0.4v0H39.9z M42,10.6v0.6c0,0.3-0.2,0.5-0.5,0.5c-0.3,0-0.5-0.2-0.5-0.6l0-2.1h0V8.5
			c0-0.3,0.2-0.5,0.5-0.5c0.3,0,0.5,0.2,0.5,0.6L42,10.6L42,10.6z"/>
		<path class="st0" d="M46.6,6.5c0.7,0,1.3,0.3,1.9,0.8c0.5,0.5,0.8,1.2,0.8,1.9c0,0.7-0.3,1.3-0.8,1.9c-0.5,0.5-1.2,0.8-1.9,0.8
			c-0.7,0-1.3-0.3-1.9-0.8c-0.5-0.5-0.8-1.2-0.8-1.9c0-0.3,0-0.5,0.1-0.8c0.1-0.2,0.3-0.3,0.4-0.3h0c0.3,0,0.4,0.1,0.5,0.4
			c0,0.1,0,0.1,0,0.1C45,8.8,45,9,45,9.1v0c0,0.5,0.2,1,0.7,1.3c0.3,0.2,0.6,0.3,0.9,0.3c0.5,0,1-0.2,1.3-0.7
			c0.2-0.3,0.3-0.6,0.3-0.9v0c0-0.5-0.2-0.9-0.6-1.2c-0.3-0.2-0.7-0.4-1.1-0.4h-2.1v0c0.3-0.3,0.5-0.6,0.8-0.7
			C45.7,6.6,46.1,6.5,46.6,6.5z"/>
		<path class="st0" d="M50.8,8.6l0,2.7c0,0.3-0.2,0.5-0.5,0.5c-0.3,0-0.5-0.2-0.5-0.6l0-3.4V7c0-0.3,0.2-0.5,0.5-0.5
			c0.1,0,0.2,0,0.3,0.1c0.1,0,0.1,0.1,0.2,0.2l0.1,0.1c0,0,0,0,0,0l1.8,2.6l1.7-2.5c0,0,0,0,0,0l0.1-0.1c0.1-0.1,0.1-0.1,0.2-0.2
			c0.1-0.1,0.2-0.1,0.3-0.1c0.4,0.1,0.5,0.2,0.5,0.5v0.8l0,3.4c0,0.4-0.2,0.6-0.5,0.6c-0.3,0-0.5-0.2-0.5-0.5l0-2.7
			c-0.9,1.3-1.4,2-1.5,2.1c-0.1,0.1-0.2,0.2-0.3,0.2c-0.1,0-0.2,0-0.3-0.1C52.3,10.8,51.7,10,50.8,8.6z"/>
	</g>
	<g>
		<g>
			<path class="st1" d="M23.4,14L23.4,14L22.7,14v0.5h0.7v0.1h-0.7v0.6h0.8v0.1h-0.9V14H23.4z"/>
			<path class="st1" d="M24.9,14.7v0.6h-0.1L24.9,14.7c-0.1-0.2-0.2-0.3-0.4-0.3c-0.2,0-0.4,0.1-0.4,0.4v0.5h-0.1v-1h0.1v0.2
				c0.1-0.2,0.2-0.2,0.4-0.3C24.8,14.3,24.9,14.4,24.9,14.7z"/>
			<path class="st1" d="M26,15.2c-0.1,0-0.1,0.1-0.2,0.1c-0.1,0-0.2-0.1-0.2-0.3v-0.6h-0.1v-0.1h0.1v-0.2h0.1v0.2H26v0.1h-0.3V15
				c0,0.1,0.1,0.2,0.2,0.2C25.8,15.2,25.9,15.2,26,15.2L26,15.2z"/>
			<path class="st1" d="M27.3,14.8h-0.8c0,0.2,0.2,0.4,0.4,0.4c0.1,0,0.2,0,0.3-0.1l0,0.1c-0.1,0.1-0.2,0.2-0.4,0.2
				c-0.3,0-0.5-0.2-0.5-0.5c0-0.3,0.2-0.5,0.5-0.5C27.1,14.3,27.3,14.5,27.3,14.8z M27.2,14.7c0-0.2-0.2-0.4-0.4-0.4
				c-0.2,0-0.4,0.1-0.4,0.4H27.2z"/>
			<path class="st1" d="M28.3,14.3L28.3,14.3c-0.2,0.1-0.3,0.2-0.4,0.4v0.5h-0.1v-1h0.1v0.2C28,14.4,28.1,14.3,28.3,14.3z"/>
			<path class="st1" d="M29.7,14.8c0,0.3-0.2,0.5-0.5,0.5c-0.2,0-0.3-0.1-0.4-0.3v0.6h-0.1v-1.3h0.1v0.3c0.1-0.2,0.2-0.3,0.4-0.3
				C29.5,14.3,29.7,14.5,29.7,14.8z M29.6,14.8c0-0.2-0.2-0.4-0.4-0.4c-0.2,0-0.4,0.2-0.4,0.4c0,0.2,0.2,0.4,0.4,0.4
				C29.5,15.2,29.6,15,29.6,14.8z"/>
			<path class="st1" d="M30.7,14.3L30.7,14.3c-0.2,0.1-0.3,0.2-0.4,0.4v0.5h-0.1v-1h0.1v0.2C30.4,14.4,30.5,14.3,30.7,14.3z"/>
			<path class="st1" d="M31.3,14C31.3,14.1,31.3,14.1,31.3,14c-0.1,0.1-0.1,0-0.1,0C31.2,14,31.2,13.9,31.3,14
				C31.3,13.9,31.3,14,31.3,14z M31.3,14.3v1h-0.1L31.3,14.3L31.3,14.3z"/>
			<path class="st1" d="M32.1,14.4c-0.1,0-0.2,0.1-0.2,0.2c0,0.3,0.6,0.1,0.6,0.5c0,0.2-0.2,0.3-0.3,0.3c-0.1,0-0.3,0-0.4-0.1l0-0.1
				c0.1,0.1,0.2,0.1,0.3,0.1c0.1,0,0.3-0.1,0.3-0.2c0-0.3-0.6-0.1-0.6-0.5C31.8,14.4,32,14.3,32.1,14.4c0.1-0.1,0.2,0,0.3,0l0,0.1
				C32.3,14.4,32.2,14.4,32.1,14.4z"/>
			<path class="st1" d="M33.8,14.8H33c0,0.2,0.2,0.4,0.4,0.4c0.1,0,0.2,0,0.3-0.1l0,0.1c-0.1,0.1-0.2,0.2-0.4,0.2
				c-0.3,0-0.5-0.2-0.5-0.5c0-0.3,0.2-0.5,0.5-0.5C33.7,14.3,33.8,14.5,33.8,14.8z M33.7,14.7c0-0.2-0.2-0.4-0.4-0.4
				c-0.2,0-0.4,0.1-0.4,0.4H33.7z"/>
			<path class="st1" d="M35.6,14c-0.2,0-0.3,0.1-0.3,0.2c0,0.4,0.8,0.2,0.8,0.7c0,0.2-0.2,0.3-0.4,0.3c-0.2,0-0.3-0.1-0.5-0.2l0-0.1
				c0.1,0.1,0.3,0.2,0.4,0.2c0.2,0,0.4-0.1,0.4-0.3c0-0.4-0.8-0.2-0.8-0.7C35.1,14.1,35.3,14,35.6,14c0.1-0.1,0.3,0,0.4,0l0,0.1
				C35.8,14.1,35.7,14,35.6,14z"/>
			<path class="st1" d="M37.4,14.8h-0.8c0,0.2,0.2,0.4,0.4,0.4c0.1,0,0.2,0,0.3-0.1l0,0.1c-0.1,0.1-0.2,0.2-0.4,0.2
				c-0.3,0-0.5-0.2-0.5-0.5c0-0.3,0.2-0.5,0.5-0.5C37.2,14.3,37.4,14.5,37.4,14.8z M37.3,14.7c0-0.2-0.2-0.4-0.4-0.4
				c-0.2,0-0.4,0.1-0.4,0.4H37.3z"/>
			<path class="st1" d="M38.3,14.4c-0.2,0-0.4,0.2-0.4,0.4c0,0.2,0.2,0.4,0.4,0.4c0.1,0,0.2,0,0.3-0.1l0,0.1
				c-0.1,0.1-0.2,0.2-0.4,0.2c-0.3,0-0.5-0.2-0.5-0.5C37.8,14.5,38,14.3,38.3,14.4c0.1-0.1,0.3,0,0.3,0.1l0,0.1
				C38.5,14.4,38.4,14.4,38.3,14.4z"/>
			<path class="st1" d="M40,14.3v1H40V15c-0.1,0.2-0.2,0.3-0.4,0.3c-0.2,0-0.4-0.1-0.4-0.4v-0.6h0.1v0.6c0,0.2,0.1,0.3,0.3,0.3
				c0.2,0,0.4-0.2,0.4-0.4L40,14.3L40,14.3z"/>
			<path class="st1" d="M41.1,14.3L41.1,14.3c-0.2,0.1-0.3,0.2-0.4,0.4v0.5h-0.1v-1h0.1v0.2C40.8,14.4,41,14.3,41.1,14.3z"/>
			<path class="st1" d="M41.7,14C41.7,14.1,41.7,14.1,41.7,14c-0.1,0.1-0.1,0-0.1,0C41.6,14,41.6,13.9,41.7,14
				C41.7,13.9,41.7,14,41.7,14z M41.7,14.3v1h-0.1L41.7,14.3L41.7,14.3z"/>
			<path class="st1" d="M42.8,15.2c-0.1,0-0.1,0.1-0.2,0.1c-0.1,0-0.2-0.1-0.2-0.3v-0.6h-0.1v-0.1h0.1v-0.2h0.1v0.2h0.3v0.1h-0.3V15
				c0,0.1,0.1,0.2,0.2,0.2C42.7,15.2,42.7,15.2,42.8,15.2L42.8,15.2z"/>
			<path class="st1" d="M43.3,15.6c-0.1,0-0.1,0-0.2-0.1l0-0.1C43.2,15.5,43.2,15.6,43.3,15.6c0.1-0.1,0.2-0.1,0.2-0.3l0-0.1l-0.4-1
				h0.1l0.4,0.9l0.3-0.9H44l-0.4,1.1C43.5,15.6,43.4,15.6,43.3,15.6z"/>
			<path class="st1" d="M46.5,14.6c0,0.4-0.3,0.7-0.7,0.7h-0.5V14h0.5C46.2,14,46.5,14.3,46.5,14.6z M46.4,14.6
				c0-0.3-0.3-0.6-0.6-0.6h-0.4v1.2h0.4C46.2,15.2,46.4,14.9,46.4,14.6z"/>
			<path class="st1" d="M47.9,14.8H47c0,0.2,0.2,0.4,0.4,0.4c0.1,0,0.2,0,0.3-0.1l0,0.1c-0.1,0.1-0.2,0.2-0.4,0.2
				c-0.3,0-0.5-0.2-0.5-0.5c0-0.3,0.2-0.5,0.5-0.5C47.7,14.3,47.9,14.5,47.9,14.8z M47.8,14.7c0-0.2-0.2-0.4-0.4-0.4
				c-0.2,0-0.4,0.1-0.4,0.4H47.8z"/>
			<path class="st1" d="M48.5,13.9v1.4h-0.1L48.5,13.9L48.5,13.9z"/>
			<path class="st1" d="M49.3,14C49.3,14.1,49.3,14.1,49.3,14c-0.1,0.1-0.1,0-0.1,0C49.2,14,49.2,13.9,49.3,14
				C49.3,13.9,49.3,14,49.3,14z M49.3,14.3v1h-0.1L49.3,14.3L49.3,14.3z"/>
			<path class="st1" d="M49.8,14.3l0.3,0.9l0.3-0.9h0.1l-0.4,1h-0.1L49.8,14.3L49.8,14.3z"/>
			<path class="st1" d="M51.8,14.8H51c0,0.2,0.2,0.4,0.4,0.4c0.1,0,0.2,0,0.3-0.1l0,0.1c-0.1,0.1-0.2,0.2-0.4,0.2
				c-0.3,0-0.5-0.2-0.5-0.5c0-0.3,0.2-0.5,0.5-0.5C51.7,14.3,51.9,14.5,51.8,14.8z M51.8,14.7c0-0.2-0.2-0.4-0.4-0.4
				c-0.2,0-0.4,0.1-0.4,0.4H51.8z"/>
			<path class="st1" d="M52.8,14.3L52.8,14.3c-0.2,0.1-0.3,0.2-0.4,0.4v0.5h-0.1v-1h0.1v0.2C52.5,14.4,52.7,14.3,52.8,14.3z"/>
			<path class="st1" d="M54.1,14.8h-0.8c0,0.2,0.2,0.4,0.4,0.4c0.1,0,0.2,0,0.3-0.1l0,0.1c-0.1,0.1-0.2,0.2-0.4,0.2
				c-0.3,0-0.5-0.2-0.5-0.5c0-0.3,0.2-0.5,0.5-0.5C54,14.3,54.1,14.5,54.1,14.8z M54.1,14.7c0-0.2-0.2-0.4-0.4-0.4
				c-0.2,0-0.4,0.1-0.4,0.4H54.1z"/>
			<path class="st1" d="M55.5,13.9v1.4h-0.1V15c-0.1,0.2-0.2,0.3-0.4,0.3c-0.3,0-0.5-0.2-0.5-0.5c0-0.3,0.2-0.5,0.5-0.5
				c0.2,0,0.3,0.1,0.4,0.3L55.5,13.9L55.5,13.9z M55.5,14.8c0-0.2-0.2-0.4-0.4-0.4c-0.2,0-0.4,0.2-0.4,0.4c0,0.2,0.2,0.4,0.4,0.4
				C55.3,15.2,55.5,15,55.5,14.8z"/>
		</g>
	</g>
	<g>
		<linearGradient id="SVGID_1_" gradientUnits="userSpaceOnUse" x1="2.1501" y1="10.7412" x2="10.3867" y2="8.5342">
			<stop  offset="0" style="stop-color:#499AD4"/>
			<stop  offset="1" style="stop-color:#80479C"/>
		</linearGradient>
		<path class="st2" d="M10.8,17.2c-0.4,0.4-0.5,0.4-1,0.1C7.4,16,5.6,14,4.4,11.4c0-0.1-0.1-0.1-0.1-0.3c1.1,0.5,2.1,1.1,2.8,2.1
			c0-0.6-0.3-1-0.6-1.3c-0.6-0.7-1.3-1.1-2-1.5C3.7,10,3,9.5,2.2,9C2,8.9,1.8,8.6,1.6,8.4c0,0.7,0.3,1.4,1.1,1.9
			c0.2,0.1,0.3,0.3,0.4,0.6c1.3,3.4,3.5,6,6.8,7.6c0.2,0.1,0.4,0.1,0.6,0c0.7-0.4,1.4-0.9,2.1-1.3c0,0,0.1-0.1,0.1-0.1
			c-0.7-0.4-1.5-0.8-2.1-1.3c-1.5-1.1-2.3-2.6-2.4-4.5c-0.1-1,0-1.9-0.1-2.9C8.1,6.5,7.2,4.9,5.3,3.9C4.5,3.5,3.6,3.2,2.8,2.8
			C1.6,2.3,1.1,1.9,0.4,1.1c0,0.2,0.1,0.4,0.1,0.6c0.3,0.9,1,1.6,1.8,2c0.8,0.4,1.7,0.9,2.5,1.3c1.5,0.8,2.1,2,2.1,3.7
			c0,1.4,0,2.9,0.4,4.3C8,14.9,8.9,16.4,10.8,17.2C10.8,17.2,10.8,17.2,10.8,17.2z"/>
		<linearGradient id="SVGID_2_" gradientUnits="userSpaceOnUse" x1="9.1261" y1="10.9577" x2="20.8332" y2="7.8208">
			<stop  offset="0" style="stop-color:#499AD4"/>
			<stop  offset="1" style="stop-color:#80479C"/>
		</linearGradient>
		<path class="st3" d="M19.1,1.6c0.1,1-0.1,2-0.7,2.8c-0.8,1.1-2,1.7-3.2,2.1c-1.2,0.3-2.4,0.7-3.5,1.4c-2.4,1.6-2.7,5-1.1,6.9
			c0.7,0.9,1.6,1.4,2.7,1.7c0.1,0,0.3,0,0.4-0.1c1.1-1,2-2.1,2.7-3.4c0.3-0.5,0.5-0.9,0.8-1.4c0.1-0.1,0.1-0.2,0.2-0.3
			c-1.2,0.4-2.3,0.9-3.5,1.3c-0.2,0.1-0.3,0.2-0.4,0.3c-0.6,0.4-0.7,1-0.2,1.7c0-0.8,0.6-1.1,1.2-1.4c0.3-0.2,0.7-0.3,1.1-0.4
			c0,0,0.1,0.1,0.1,0.1c-0.5,0.6-1,1.3-1.5,1.9c-0.1,0.1-0.1,0.1-0.2,0.2c-0.4,0.4-0.4,0.4-0.9,0.1c-1.1-0.6-1.6-1.6-1.7-2.9
			c-0.1-1,0-1.9,0.7-2.6c0.4-0.4,0.8-0.8,1.2-1c0.9-0.5,1.7-0.9,2.7-1.2C17,6.8,18.1,6.2,18.9,5C19.6,3.9,19.6,2.8,19.1,1.6z"/>
		<linearGradient id="SVGID_3_" gradientUnits="userSpaceOnUse" x1="7.9349" y1="6.8376" x2="16.1978" y2="4.6236">
			<stop  offset="0" style="stop-color:#499AD4"/>
			<stop  offset="1" style="stop-color:#80479C"/>
		</linearGradient>
		<path class="st4" d="M15.5,5.8C15.6,5.8,15.6,5.8,15.5,5.8c1-0.8,0.9-1.6-0.2-2.1c-0.1,0-0.2-0.1-0.3-0.1c-0.5-0.1-1-0.3-1.5-0.6
			C12.8,2.6,12,2.8,11.2,3c-0.5,0.1-1,0.3-1.4,0.5C9,3.9,8.2,4.2,7.3,4.6c1.1,1.1,1.4,2.6,1.5,4.1C9.1,7.5,9.1,6.2,8.7,5
			c0.4-0.2,0.8-0.4,1.2-0.6c0.4-0.2,0.9-0.5,1.3-0.7c0.4-0.2,0.9-0.2,1.4-0.2c0,0,0,0.1,0,0.1c-0.4,0.1-0.8,0.3-1.3,0.4
			c0,0,0,0.1,0,0.1C12,4.1,12.5,4,13.1,4c0.6,0,1.1,0.1,1.7,0.2c-1.5,0.1-2.6,0.7-3.5,1.8c-0.8,1-1.3,2.1-1.5,3.3
			c0.5-0.9,1.2-1.6,2.1-2.1C12,7.2,12,7,12.1,6.8c0.6-1.2,1.6-1.9,2.8-1.9C15.5,5,15.7,5.3,15.5,5.8z"/>
		<linearGradient id="SVGID_4_" gradientUnits="userSpaceOnUse" x1="4.2785" y1="5.1379" x2="17.3781" y2="1.6279">
			<stop  offset="0" style="stop-color:#499AD4"/>
			<stop  offset="1" style="stop-color:#80479C"/>
		</linearGradient>
		<path class="st5" d="M3.5,2.2C4,2.4,4.4,2.6,4.8,2.8c0.1,0,0.2,0,0.3,0c2-0.5,4-0.7,6-0.6c1.8,0.1,3.7,0.4,5.4,0.9
			c0.2,0.1,0.3,0.2,0.4,0.4c0.1,0.4,0.1,0.8,0.2,1.3c0.3-0.3,0.5-0.5,0.8-0.7c0.1-0.1,0.1-0.2,0.1-0.3c0-0.3-0.1-0.6-0.2-0.8
			c0-0.5-0.3-0.7-0.8-0.8c-1.6-0.5-3.2-0.8-4.8-1C9.3,1,6.4,1.3,3.7,2.2C3.6,2.2,3.6,2.2,3.5,2.2z"/>
		<linearGradient id="SVGID_5_" gradientUnits="userSpaceOnUse" x1="3.2261" y1="15.8036" x2="19.0128" y2="11.5735">
			<stop  offset="0" style="stop-color:#499AD4"/>
			<stop  offset="1" style="stop-color:#80479C"/>
		</linearGradient>
		<path class="st6" d="M18.7,10.4c-0.5,0.2-0.7,0.5-0.9,1c-1.4,3.6-3.9,6.3-7.3,7.9c-0.1,0.1-0.3,0.1-0.4,0
			c-3.6-1.8-6.1-4.5-7.5-8.3c-0.1-0.3-0.5-0.6-0.7-0.8c0,0-0.1,0.1-0.1,0.1C2,11,2.3,11.8,2.6,12.5c1.6,3.4,4.1,5.8,7.5,7.4
			c0.1,0,0.2,0,0.3,0c4.1-1.9,6.9-5,8.2-9.3C18.7,10.5,18.7,10.5,18.7,10.4z"/>
		<linearGradient id="SVGID_6_" gradientUnits="userSpaceOnUse" x1="2.7478" y1="4.2822" x2="18.2" y2="0.1418">
			<stop  offset="0" style="stop-color:#499AD4"/>
			<stop  offset="1" style="stop-color:#80479C"/>
		</linearGradient>
		<path class="st7" d="M18.5,3.1c0.1-0.3,0.2-0.5,0.2-0.8c0.1-0.4-0.1-0.6-0.5-0.8c-2.2-0.8-4.4-1.2-6.8-1.4C8.2-0.1,5,0.4,2,1.6
			C2.3,1.9,2.5,2,2.9,1.8c2-0.7,4.1-1.1,6.2-1.2c2.9-0.1,5.8,0.2,8.5,1.2C18,2,18.2,2.1,18.2,2.4C18.3,2.7,18.3,2.9,18.5,3.1
			C18.4,3.1,18.4,3.1,18.5,3.1z"/>
		<linearGradient id="SVGID_7_" gradientUnits="userSpaceOnUse" x1="11.019" y1="8.7932" x2="20.9288" y2="6.1378">
			<stop  offset="0" style="stop-color:#499AD4"/>
			<stop  offset="1" style="stop-color:#80479C"/>
		</linearGradient>
		<path class="st8" d="M11.9,11.6c0.7-1.3,2-1.8,3.3-2.2C16.3,9,17.5,8.7,18.5,8c1.8-1.2,2.2-2.9,1.7-4.7C20.1,3.9,20,4.4,19.9,5
			c-0.4,1.4-1.4,2.3-2.7,2.8c-0.8,0.3-1.7,0.6-2.6,0.9c-0.9,0.4-1.8,0.9-2.4,1.8C12,10.8,11.9,11.2,11.9,11.6
			C11.8,11.5,11.8,11.6,11.9,11.6z"/>
		<linearGradient id="SVGID_8_" gradientUnits="userSpaceOnUse" x1="1.0494" y1="6.5405" x2="5.516" y2="5.3437">
			<stop  offset="0" style="stop-color:#499AD4"/>
			<stop  offset="1" style="stop-color:#80479C"/>
		</linearGradient>
		<path class="st9" d="M6.5,9.1c-0.1-1.3-0.6-2.3-1.7-3C3.7,5.5,2.8,5,1.9,4.3c-0.6-0.4-1.2-1-1.7-1.5c0,0.9,0.5,1.7,1.2,2.3
			c0.5,0.4,1,0.7,1.6,1C4.3,6.9,5.6,7.7,6.5,9.1z"/>
		<linearGradient id="SVGID_9_" gradientUnits="userSpaceOnUse" x1="1.4726" y1="8.8481" x2="5.8288" y2="7.6808">
			<stop  offset="0" style="stop-color:#499AD4"/>
			<stop  offset="1" style="stop-color:#80479C"/>
		</linearGradient>
		<path class="st10" d="M6.7,10.9c-0.1-0.8-0.6-1.5-1.4-2C4.8,8.6,4.3,8.3,3.8,8c-1.1-0.7-2.2-1.3-3-2.5C0.7,6.3,0.9,6.8,1.3,7.3
			c0.5,0.6,1.2,1.1,1.9,1.5C4,9.1,4.7,9.5,5.4,9.9C5.9,10.2,6.3,10.6,6.7,10.9z"/>
		<linearGradient id="SVGID_10_" gradientUnits="userSpaceOnUse" x1="11.9007" y1="12.022" x2="19.1852" y2="10.0701">
			<stop  offset="0" style="stop-color:#499AD4"/>
			<stop  offset="1" style="stop-color:#80479C"/>
		</linearGradient>
		<path class="st11" d="M12.3,13.4c0.1-0.7,0.5-1.3,1.2-1.5c0.8-0.3,1.6-0.6,2.4-0.8c0.9-0.3,1.7-0.6,2.4-1.1
			c0.3-0.3,0.6-0.6,0.6-1.1c-1.4,1-3,1.4-4.5,1.9c-0.7,0.2-1.3,0.5-1.8,1.1C12.2,12.3,12.1,12.8,12.3,13.4z"/>
	</g>
</g>
</svg>
